# xmcd
#
# Track frame offsets: 
#        150
#        15754
#        31678
#        48283
#        66413
#        83696
#        102663
#        124897
#        141619
#        164138
#        178367
#        197768
#
# Disc length: 2967 seconds
#
# Revision: 1
# Processed by: cddbd v1.5.2PL0 Copyright (c) Steve Scherf et al.
# Submitted via: ExactAudioCopyFreeDBPlugin 1.0
#
DISCID=ac0b950c
DTITLE=Frank Turner - Tape Deck Heart
DYEAR=2013
DGENRE=Alternative
TTITLE0=Recovery
TTITLE1=Losing Days
TTITLE2=The Way I Tend To Be
TTITLE3=Plain Sailing Weather
TTITLE4=Good and Gone
TTITLE5=Tell Tale Signs
TTITLE6=Four Simple Words
TTITLE7=Polaroid Picture
TTITLE8=The Fisher King Blues
TTITLE9=Anymore
TTITLE10=Oh Brother
TTITLE11=Broken Piano
EXTD=
EXTT0=
EXTT1=
EXTT2=
EXTT3=
EXTT4=
EXTT5=
EXTT6=
EXTT7=
EXTT8=
EXTT9=
EXTT10=
EXTT11=
PLAYORDER=
